<svg xmlns="http://www.w3.org/2000/svg" viewBox="0 0 160 60" fill="none">
  <!-- Sun disc -->
  <circle cx="28" cy="16" r="10" fill="#E8C860"/>
  <circle cx="28" cy="16" r="12" stroke="#C8962E" stroke-width="0.8" opacity="0.4"/>
  <!-- Sun rays -->
  <g stroke="#C8962E" stroke-width="1.2" stroke-linecap="round" opacity="0.5">
    <line x1="28" y1="2" x2="28" y2="6"/>
    <line x1="28" y1="26" x2="28" y2="30"/>
    <line x1="14" y1="16" x2="18" y2="16"/>
    <line x1="38" y1="16" x2="42" y2="16"/>
    <line x1="18" y1="6" x2="21" y2="9"/>
    <line x1="38" y1="26" x2="35" y2="23"/>
    <line x1="18" y1="26" x2="21" y2="23"/>
    <line x1="38" y1="6" x2="35" y2="9"/>
  </g>
  <!-- T left (lotus petal) -->
  <path d="M24 36 C24 28, 16 22, 10 28 C6 32, 8 40, 14 42 C18 43, 22 42, 24 36Z" fill="#C8962E" opacity="0.9"/>
  <path d="M16 34 L20 34 M16 38 L20 38" stroke="#0D0D0D" stroke-width="1.5" stroke-linecap="round" opacity="0.3"/>
  <!-- T right (lotus petal) -->
  <path d="M32 36 C32 28, 40 22, 46 28 C50 32, 48 40, 42 42 C38 43, 34 42, 32 36Z" fill="#C8962E" opacity="0.9"/>
  <path d="M36 34 L40 34 M36 38 L40 38" stroke="#0D0D0D" stroke-width="1.5" stroke-linecap="round" opacity="0.3"/>
  <!-- Center petal (from TT intersection) -->
  <path d="M28 30 C28 26, 26 24, 24 26 C22 28, 24 34, 28 36 C32 34, 34 28, 32 26 C30 24, 28 26, 28 30Z" fill="#E8C860" opacity="0.6"/>
  <!-- Text -->
  <text x="62" y="30" font-family="'Playfair Display', Georgia, serif" font-weight="600" font-size="13" fill="#C8962E" letter-spacing="2">เที่ยงทำ</text>
  <text x="62" y="48" font-family="Inter, system-ui, sans-serif" font-weight="400" font-size="9" fill="#888" letter-spacing="3">DEVELOPMENT</text>
</svg>
